PathFileType	4	(X/Y/Z)	C:/Users/opensim2020/Desktop/walking_exp_matlab/subject06_walking20_straight_04.trc	
DataRate	CameraRate	NumFrames	NumMarkers	Units	OrigDataRate	OrigDataStartFrame	OrigNumFrames	
100.00	100.00	6	43	mm	100.00	2189	126	
Frame#	Time	LFHD			RFHD			LBHD			RBHD			C7			T10			CLAV			STRN			RBAK			LSHO			LUPA			LELB			LFRM			LWRA			LWRB			LFIN			RSHO			RUPA			RELB			RFRM			RWRA			RWRB			RFIN			LASI			RASI			LPSI			RPSI			LTHI			LKNE			LTIB			LANK			LHEE			LTOE			RTHI			RKNE			RTIB			RANK			RHEE			RTOE			*39			*40			*41			*42			
		X1	Y1	Z1	X2	Y2	Z2	X3	Y3	Z3	X4	Y4	Z4	X5	Y5	Z5	X6	Y6	Z6	X7	Y7	Z7	X8	Y8	Z8	X9	Y9	Z9	X10	Y10	Z10	X11	Y11	Z11	X12	Y12	Z12	X13	Y13	Z13	X14	Y14	Z14	X15	Y15	Z15	X16	Y16	Z16	X17	Y17	Z17	X18	Y18	Z18	X19	Y19	Z19	X20	Y20	Z20	X21	Y21	Z21	X22	Y22	Z22	X23	Y23	Z23	X24	Y24	Z24	X25	Y25	Z25	X26	Y26	Z26	X27	Y27	Z27	X28	Y28	Z28	X29	Y29	Z29	X30	Y30	Z30	X31	Y31	Z31	X32	Y32	Z32	X33	Y33	Z33	X34	Y34	Z34	X35	Y35	Z35	X36	Y36	Z36	X37	Y37	Z37	X38	Y38	Z38	X39	Y39	Z39	X40	Y40	Z40	X41	Y41	Z41	X42	Y42	Z42	X43	Y43	Z43	

32	0.310	1498.12610	743.83813	1673.48938	1367.37122	746.00159	1658.13086	1502.37292	878.63428	1622.36243	1374.17078	878.88983	1612.39905	1441.64502	880.62183	1461.89429	1430.36279	928.40125	1136.11523	1448.12781	771.96338	1381.89575	1456.93787	739.31348	1205.39246	1353.46777	951.07611	1296.46326	1604.03198	842.38330	1415.05603	1677.63171	857.55054	1216.04883	1691.71277	861.60577	1103.58557	1716.67432	798.12952	968.31763	1679.11877	697.73212	886.58093	1711.48254	753.88080	857.04108	1716.04382	683.08691	800.93378	1285.84473	803.15668	1416.27563	1184.88306	840.54901	1225.54688	1164.40527	836.59229	1104.32922	1141.65479	817.96637	986.57275	1172.99512	760.34027	846.70148	1125.19531	808.13171	849.92328	1123.76221	769.21112	775.34540	1549.67725	761.84149	970.00940	1331.13806	747.74890	980.03979	1510.90247	916.58466	997.57562	1345.10449	897.85779	1006.64075	1610.02258	783.57562	657.12433	1594.95056	739.86957	499.47556	1583.00000	896.57391	308.13297	1543.37170	998.65717	170.32443	1491.76196	1034.46228	175.93433	1560.18994	900.06329	65.46909	1277.28748	786.58801	642.91992	1307.64771	775.83521	518.78735	1312.62622	837.23212	256.40582	1363.13684	867.20648	74.24520	1407.41162	908.34460	50.27918	1363.91748	717.30823	39.85380	1439.14441	844.27045	1712.11780									 
33	0.320	1498.36108	728.55719	1673.32825	1367.69421	730.69995	1658.18896	1502.52869	863.44531	1622.63904	1374.27454	863.70935	1612.78760	1441.43994	865.71863	1462.07483	1430.03015	914.03778	1136.46790	1448.18884	757.22925	1382.04578	1456.48328	725.87866	1205.29565	1352.52747	936.08899	1296.99890	1603.87439	827.99860	1415.02527	1676.90234	845.75073	1215.94922	1690.23523	851.92456	1103.31982	1714.57104	793.68573	964.77545	1677.09167	697.47162	878.22864	1710.09656	754.93713	852.07739	1714.26013	687.34320	792.00592	1285.95947	787.82684	1416.77124	1184.30835	823.46442	1226.13513	1163.39697	817.56152	1105.02356	1141.45142	794.77161	987.95471	1174.41602	731.84515	850.86676	1126.30127	779.49542	851.69153	1125.55518	737.63019	778.98218	1548.92651	746.79333	970.31238	1330.09656	734.14618	979.57996	1511.52966	901.90308	998.06287	1345.52075	884.64941	1006.73828	1609.47766	763.27130	658.95148	1593.06409	716.92004	502.32596	1581.37500	865.40686	303.52570	1542.26416	959.27148	159.69235	1490.21533	995.25256	162.91263	1561.35291	854.94525	61.93439	1277.52222	777.78998	642.18292	1307.44995	769.21094	517.69293	1312.61633	834.58990	256.14658	1363.30725	866.95465	74.37107	1407.74036	908.48663	50.73906	1363.40637	717.01544	39.53199	1439.47876	828.78174	1712.28369									 
34	0.330	1498.51575	713.28961	1672.96960	1367.94800	715.43396	1657.93127	1502.69202	848.33044	1622.55017	1374.41797	848.60895	1612.90320	1441.27893	850.79938	1461.97681	1429.77576	899.58484	1136.42712	1448.15784	742.49231	1381.91602	1456.12219	711.33118	1205.06934	1351.67810	921.08698	1297.09619	1603.79834	813.57660	1414.71228	1676.14380	834.06372	1215.50806	1688.81641	842.22986	1102.87256	1713.91040	790.54608	962.17291	1675.61060	697.62073	870.29510	1708.34021	756.05206	847.14496	1712.59180	692.14734	783.50372	1286.00891	772.68414	1416.94177	1183.40869	806.12036	1226.51904	1162.35547	798.80060	1105.52905	1141.24878	771.80731	989.28857	1175.95215	703.32764	855.37347	1127.54858	750.92590	853.72253	1127.50977	705.96698	782.76404	1548.16150	731.65326	970.32684	1329.23804	721.06848	978.88831	1512.10876	887.18042	998.19208	1345.94885	871.21698	1006.37555	1609.25073	743.46887	660.49500	1591.18835	694.59381	504.82587	1580.19714	834.03259	298.74481	1541.24268	919.19476	149.28397	1488.64502	954.48273	149.57979	1561.94727	808.88458	58.22001	1277.75195	768.93011	641.24353	1307.20288	762.54120	516.50256	1312.71960	831.82300	255.93173	1363.51001	866.55542	74.57161	1408.23010	908.09650	50.88145	1363.11267	716.79547	39.26620	1439.74841	813.42548	1712.20752									 
35	0.340	1498.97742	698.11810	1672.30908	1368.20386	700.21613	1657.49646	1502.84290	833.24078	1622.10425	1374.56201	833.46686	1612.66907	1441.08850	835.85370	1461.57385	1429.56238	885.11316	1136.04736	1448.25146	727.66779	1381.44897	1455.80798	696.73267	1204.58850	1351.01367	906.18561	1296.86426	1603.74890	799.05566	1414.01587	1675.32410	822.34955	1214.78442	1687.49707	832.41998	1102.23572	1712.04236	786.23987	958.95764	1674.28857	698.05707	862.62921	1706.95605	757.75922	842.68231	1710.98840	697.45026	775.51221	1286.00745	757.61218	1416.76929	1182.70483	789.32648	1226.59106	1161.29553	780.21960	1105.80786	1141.04395	749.02490	990.58130	1177.49109	675.03748	860.18365	1128.69421	722.62244	856.06653	1129.73523	674.41681	787.24457	1547.40979	716.47638	970.09662	1328.77832	710.37793	977.26111	1512.57874	872.39606	997.98816	1346.31812	857.73022	1005.61957	1609.04248	724.24792	661.92725	1589.63818	672.83325	507.01520	1578.80200	802.18359	293.50525	1540.42773	878.08508	138.84772	1487.47693	912.89111	136.86708	1563.02185	763.07550	55.64925	1277.96667	760.17310	640.25269	1306.86792	755.87598	515.19208	1313.00134	828.92883	255.59227	1363.81506	866.16217	74.67639	1408.51636	907.88177	51.26428	1362.84839	716.53711	38.96975	1440.09814	798.13361	1711.82092									 
36	0.350	1499.21606	682.86444	1671.27966	1368.25281	684.73254	1656.61938	1502.73999	817.91113	1621.16174	1374.68640	818.30310	1612.07288	1440.96167	820.90393	1460.82837	1429.41602	870.61224	1135.39258	1448.21252	712.84949	1380.65259	1455.56787	681.96484	1203.75452	1350.54846	891.24731	1296.34131	1603.67468	784.40424	1413.00220	1674.52356	810.48138	1213.79541	1686.17798	822.31964	1101.33728	1710.89575	782.51324	956.15503	1673.07825	698.83734	855.20306	1705.48535	759.69128	838.50964	1709.53516	703.12982	768.00995	1286.02185	742.56238	1416.24194	1182.13782	772.60834	1226.37842	1160.26721	761.86615	1105.82275	1140.84680	726.40399	991.83801	1178.97681	646.85327	865.34070	1130.09973	694.26935	858.49341	1132.05920	643.13232	791.91669	1546.64514	701.37433	969.57086	1327.66980	694.14868	976.61096	1513.11316	857.55701	997.40161	1346.71912	844.18433	1004.64471	1609.17554	705.34381	662.84979	1588.33301	651.60889	508.81024	1577.78271	770.25531	288.10956	1539.68433	836.34094	128.80533	1486.71631	870.59900	124.22878	1563.89233	716.76434	53.44701	1278.31213	751.28168	639.05377	1306.57043	748.98633	513.72369	1313.35913	825.84894	255.23744	1364.17822	865.61053	74.83546	1408.92310	907.42371	51.51768	1362.68896	716.84467	38.73718	1440.45105	782.89954	1711.04407									 
37	0.360	1499.56299	667.79852	1670.08142	1368.49548	669.58459	1655.58350	1503.07825	803.05005	1620.11523	1374.78418	803.19647	1611.11707	1440.81213	805.92639	1459.79773	1429.23828	855.98505	1134.41370	1448.26343	698.00208	1379.56104	1455.31226	667.46948	1202.54663	1350.13379	876.29663	1295.47437	1603.64868	769.72559	1411.73010	1673.76782	798.36292	1212.53308	1684.98975	812.00732	1100.24768	1709.46143	778.39105	953.29437	1671.74451	699.58917	848.26257	1704.04895	761.71631	834.72388	1708.07922	709.09760	761.10248	1286.02209	727.63489	1415.37952	1181.50403	756.35730	1225.77588	1159.30066	743.61047	1105.61707	1140.76404	703.92676	993.05017	1180.40479	619.76917	870.45380	1131.62695	666.16138	861.15704	1134.53418	612.00085	797.08356	1545.94800	686.22351	968.76691	1327.09241	680.51593	975.06769	1513.70569	842.96643	996.60120	1347.11877	830.58533	1003.42780	1609.10400	686.85297	663.41681	1587.09888	631.03210	510.05463	1576.79932	738.24493	282.76114	1538.96997	793.67438	119.19120	1485.73206	827.30560	112.14803	1564.17102	669.85205	51.81591	1278.72119	742.02692	637.69275	1306.37012	741.90472	512.22705	1313.75879	822.52539	254.81175	1364.50256	865.00214	75.06311	1409.25854	907.09961	51.98127	1362.18384	716.15698	38.31237	1440.75403	767.75714	1709.95288									 
